<svg xmlns="http://www.w3.org/2000/svg" id="b44e7be8-5a18-423c-9a81-4527bf477255" width="18" height="18" viewBox="0 0 18 18"><defs><linearGradient id="a5911faf-5265-49f6-9ed2-bf40acd6b580" x1="10.79" x2="10.79" y1="2.17" y2="16.56" gradientUnits="userSpaceOnUse"><stop offset=".18" stop-color="#5ea0ef"/><stop offset="1" stop-color="#0078d4"/></linearGradient></defs><title>Icon-networking-78</title><rect width="1.18" height="5.26" x="3.7" y="5.49" fill="#b3b3b3" rx=".52" transform="translate(-3.83 12.41) rotate(-90)"/><rect width="1.18" height="5.26" x="2.04" y="7.88" fill="#a3a3a3" rx=".52" transform="translate(-7.88 13.14) rotate(-90)"/><rect width="1.18" height="5.26" x="3.7" y="10.26" fill="#7a7a7a" rx=".52" transform="translate(-8.6 17.19) rotate(-90)"/><path fill="url(#a5911faf-5265-49f6-9ed2-bf40acd6b580)" d="M18,11a3.28,3.28,0,0,0-2.81-3.18,4.13,4.13,0,0,0-4.21-4,4.23,4.23,0,0,0-4,2.8,3.89,3.89,0,0,0-3.38,3.8,4,4,0,0,0,4.06,3.86l.36,0h6.58l.17,0A3.32,3.32,0,0,0,18,11Z"/></svg>