<svg xmlns="http://www.w3.org/2000/svg" viewBox="0 0 229.67 255"><defs><style>.cls-1{fill:#fcd116}.cls-2{fill:#5db300}.cls-3{fill:#fff}</style></defs><title>Asset 5</title><g id="Layer_2" data-name="Layer 2"><g id="Layer_1-2" data-name="Layer 1"><rect width="34" height="240" x="50" class="cls-1"/><rect width="34" height="167" y="73" class="cls-1"/><rect width="34" height="206" x="150" y="33" class="cls-1"/><rect width="34" height="120" x="100" y="119" class="cls-1"/><circle cx="184.17" cy="209.5" r="45.5" class="cls-2"/><path d="M158.88,211.16a2.27,2.27,0,0,1-.61-1.66,2.33,2.33,0,0,1,.73-1.62l4.75-4.39a2.34,2.34,0,0,1,1.56-.6,2.31,2.31,0,0,1,1.69.73l12.14,13,21.66-27.72a2.27,2.27,0,0,1,1.81-.89,2.32,2.32,0,0,1,1.41.47l5.15,4a2.26,2.26,0,0,1,.45,3.15l-27.68,35.45a2.85,2.85,0,0,1-4.33.19Z" class="cls-3"/></g></g></svg>