<svg xmlns="http://www.w3.org/2000/svg" xmlns:svg="http://www.w3.org/2000/svg" xmlns:xlink="http://www.w3.org/1999/xlink" id="FxSymbol0-158" class="fxs-portal-svg" data-type="251" focusable="false" role="presentation" viewBox="0 0 50 50"><g><title/><path fill="#7a7a7a" d="M 32.4 38.4 H 18.8 c 1.6 5.7 -0.6 6.6 -10.2 6.6 v 3 h 32.6 v -3 c -9.5 0 -10.4 -0.8 -8.8 -6.6" class="msportalfx-svg-c04"/><path fill="#a0a1a2" d="M 47 2 H 2.7 C 1.2 2 0 3.3 0 4.8 v 30.8 c 0 1.5 1.2 2.8 2.7 2.8 H 47 c 1.5 0 3 -1.3 3 -2.8 V 4.8 C 50 3.3 48.5 2 47 2 m -0.8 3.8 v 28.7 H 3.8 V 5.8 l 42.4 -0.1 v 0.1 Z" class="msportalfx-svg-c03"/><path fill="#59b4d9" d="M 46.1 5.8 v 28.8 H 3.8 V 5.8 h 42.4 Z" class="msportalfx-svg-c15"/><path fill="#fff" d="M 3.8 34.6 V 5.8 l 38.7 -0.1 L 47 2 H 2.7 C 1.2 2 0 3.3 0 4.8 v 30.8 c 0 1.5 1.2 2.8 2.7 2.8 h 1.1 l 4.6 -3.8 H 3.8 Z" class="msportalfx-svg-c01" opacity=".2"/><path fill="#59b4d9" d="M 3.8 34.6 V 5.8 h 38.7 H 3.8 Z" class="msportalfx-svg-c15"/><path fill="#a0a1a2" d="M 8.7 45 h 32.7 v 3 H 8.7 Z" class="msportalfx-svg-c03"/><path fill="#b8d432" d="M 25.5 4.1 c 0 0.4 -0.3 0.7 -0.7 0.7 c -0.4 0 -0.7 -0.3 -0.7 -0.7 c 0 -0.4 0.3 -0.7 0.7 -0.7 c 0.4 0 0.7 0.3 0.7 0.7" class="msportalfx-svg-c13"/><path fill="#0072c6" d="M 3.8 20.7 l 8.7 -1.9 l 3.7 6.1 l 5.3 -6.1 l 3.6 3.4 l 6.2 -11.6 L 35 27.1 l 3.6 -8.2 l 7.6 3 v 12.7 H 3.8 Z" class="msportalfx-svg-c19"/><path fill="#b8d432" d="M 38.1 17.4 l -2.8 6.3 l -3.6 -16.2 l -6.8 12.8 l -3.5 -3.2 l -5.1 5.9 l -3.3 -5.6 l -9.2 2 v 2 H 4 l 8 -1.8 l 4 6.7 l 5.6 -6.4 l 3.8 3.6 l 5.5 -10.4 l 3.7 16.8 l 4.5 -9.9 l 6.7 2.6 h 0.3 v -2.1 l -8 -3.1 Z" class="msportalfx-svg-c13"/></g><defs><linearGradient id="a" x1="9" x2="9" y1="16.39" y2="-1.94" gradientUnits="userSpaceOnUse"><stop offset="0" stop-color="#0078D4"/><stop offset=".16" stop-color="#1380DA"/><stop offset=".53" stop-color="#3C91E5"/><stop offset=".82" stop-color="#559CEC"/><stop offset="1" stop-color="#5EA0EF"/></linearGradient><linearGradient id="b" x1="9.88" x2="9.99" y1="7.11" y2="17.27" gradientUnits="userSpaceOnUse"><stop offset="0" stop-color="#32D4F5"/><stop offset=".32" stop-color="#31D1F3"/><stop offset=".53" stop-color="#2EC9EB"/><stop offset=".7" stop-color="#29BADE"/><stop offset=".86" stop-color="#22A5CB"/><stop offset="1" stop-color="#198AB3"/><stop offset="1" stop-color="#198AB3"/></linearGradient><radialGradient id="c" cx="9.43" cy="7.03" r="7.27" gradientUnits="userSpaceOnUse"><stop offset="0" stop-color="#F2F2F2"/><stop offset=".58" stop-color="#EEE"/><stop offset="1" stop-color="#E6E6E6"/></radialGradient></defs></svg>