<svg xmlns="http://www.w3.org/2000/svg" xmlns:svg="http://www.w3.org/2000/svg" xmlns:xlink="http://www.w3.org/1999/xlink" id="FxSymbol0-04c" data-islogo="true" data-type="154" focusable="false" role="presentation" viewBox="0 0 18 18"><g><path fill="url(#312f5f0e-2665-4dbe-ad9a-f9be3cbceffa)" d="M 10.56 16.93 a 0.56 0.56 0 0 1 -0.57 0.57 H 1.14 a 0.56 0.56 0 0 1 -0.56 -0.57 V 1.07 A 0.56 0.56 0 0 1 1.14 0.5 H 10 a 0.56 0.56 0 0 1 0.57 0.57 Z"/><path fill="#003067" d="M 2 6.46 a 1.08 1.08 0 0 1 1.13 -1.08 h 5 a 1.08 1.08 0 0 1 1.05 1.08 A 1.08 1.08 0 0 1 8.1 7.55 h -5 A 1.09 1.09 0 0 1 2 6.46 Z m 0 -3.22 a 1.09 1.09 0 0 1 1.13 -1.09 h 5 a 1.08 1.08 0 0 1 1.05 1.09 A 1.08 1.08 0 0 1 8.1 4.32 h -5 A 1.08 1.08 0 0 1 2 3.24 Z"/><circle cx="3.17" cy="3.24" r=".73" fill="#50e6ff"/><circle cx="3.17" cy="6.46" r=".73" fill="#50e6ff"/><path fill="url(#13c7faaf-c808-4b0a-8b59-d062456c03fa)" d="M 17.42 14.38 a 3.12 3.12 0 0 0 -2.67 -3 a 3.93 3.93 0 0 0 -4 -3.8 a 4 4 0 0 0 -3.83 2.66 a 3.7 3.7 0 0 0 -3.22 3.59 a 3.77 3.77 0 0 0 3.86 3.67 h 6.77 a 3.15 3.15 0 0 0 3.09 -3.12 Z"/></g><defs><linearGradient id="a" x1="9" x2="9" y1="16.39" y2="-1.94" gradientUnits="userSpaceOnUse"><stop offset="0" stop-color="#0078D4"/><stop offset=".16" stop-color="#1380DA"/><stop offset=".53" stop-color="#3C91E5"/><stop offset=".82" stop-color="#559CEC"/><stop offset="1" stop-color="#5EA0EF"/></linearGradient><linearGradient id="b" x1="9.88" x2="9.99" y1="7.11" y2="17.27" gradientUnits="userSpaceOnUse"><stop offset="0" stop-color="#32D4F5"/><stop offset=".32" stop-color="#31D1F3"/><stop offset=".53" stop-color="#2EC9EB"/><stop offset=".7" stop-color="#29BADE"/><stop offset=".86" stop-color="#22A5CB"/><stop offset="1" stop-color="#198AB3"/><stop offset="1" stop-color="#198AB3"/></linearGradient><radialGradient id="c" cx="9.43" cy="7.03" r="7.27" gradientUnits="userSpaceOnUse"><stop offset="0" stop-color="#F2F2F2"/><stop offset=".58" stop-color="#EEE"/><stop offset="1" stop-color="#E6E6E6"/></radialGradient><linearGradient id="312f5f0e-2665-4dbe-ad9a-f9be3cbceffa" x1="5.57" x2="5.57" y1="17.5" y2=".5" gradientUnits="userSpaceOnUse"><stop offset=".05" stop-color="#949494"/><stop offset=".36" stop-color="#979797"/><stop offset=".54" stop-color="#9F9F9F"/><stop offset=".69" stop-color="#ADADAD"/><stop offset=".73" stop-color="#B3B3B3"/></linearGradient><linearGradient id="13c7faaf-c808-4b0a-8b59-d062456c03fa" x1="10.56" x2="10.56" y1="6.02" y2="19.71" gradientUnits="userSpaceOnUse"><stop offset=".18" stop-color="#5EA0EF"/><stop offset="1" stop-color="#0078D4"/></linearGradient></defs></svg>